# xmcd CD database file
#
# Track frame offsets:
#	150
#	873
#	23452
#	41124
#	76805
#	114159
#	139415
#	160598
#	182945
#	218363
#	249574
#	283941
#	317801
#
# Disc length: 4679 seconds
#
# Revision: 0
# Processed by: cddbd v1.5.2PL0 Copyright (c) Steve Scherf et al.
# Submitted via: CDex 1.70beta2
#
DISCID=9f12450d
DTITLE=Lee Child - 61 Hours Disc 1
DYEAR=2010
DGENRE=Audio Book
TTITLE0=61 Hours Disc 1-01
TTITLE1=61 Hours Disc 1-02
TTITLE2=61 Hours Disc 1-03
TTITLE3=61 Hours Disc 1-04
TTITLE4=61 Hours Disc 1-05
TTITLE5=61 Hours Disc 1-06
TTITLE6=61 Hours Disc 1-07
TTITLE7=61 Hours Disc 1-08
TTITLE8=61 Hours Disc 1-09
TTITLE9=61 Hours Disc 1-10
TTITLE10=61 Hours Disc 1-11
TTITLE11=61 Hours Disc 1-12
TTITLE12=61 Hours Disc 1-13
EXTD=YEAR: 2010
EXTT0=
EXTT1=
EXTT2=
EXTT3=
EXTT4=
EXTT5=
EXTT6=
EXTT7=
EXTT8=
EXTT9=
EXTT10=
EXTT11=
EXTT12=
PLAYORDER=
